<svg width="24" height="24" viewBox="0 0 24 24" fill="none" xmlns="http://www.w3.org/2000/svg">
<g clip-path="url(#clip0_60_4041)">
<path d="M10.8001 17H5.20011C4.60011 17 4.30011 17.6 4.60011 18.1C5.30011 19.2 6.60011 20 8.00011 20C9.40011 20 10.7001 19.2 11.4001 18.1C11.7001 17.6 11.3001 17 10.8001 17Z" fill="#828282"/>
<path d="M10.5 12C10.5 12 9.1 12 9 13.4V13.5C9 13.8 9.2 14 9.5 14H11.5C11.8 14 12 13.8 12 13.5V13.4C12 13.1 11.8 12 10.5 12Z" fill="#828282"/>
<path d="M6.5 14C6.8 14 7 13.8 7 13.5V13.4C7 13.1 6.8 12 5.5 12C5.5 12 4.1 12 4 13.4V13.5C4 13.8 4.2 14 4.5 14H6.5Z" fill="#828282"/>
<path d="M20 0H12C9.8 0 8 1.8 8 4V8H4C1.8 8 0 9.8 0 12V20C0 22.2 1.8 24 4 24H12C14.2 24 16 22.2 16 20V16H20C22.2 16 24 14.2 24 12V4C24 1.8 22.2 0 20 0ZM14 20C14 21.1 13.1 22 12 22H4C2.9 22 2 21.1 2 20V12C2 10.9 2.9 10 4 10H8H10H12C12.2 10 12.4 10 12.6 10.1C13.2 10.3 13.7 10.8 13.9 11.4C14 11.6 14 11.8 14 12V14V16V20ZM22 12C22 13.1 21.1 14 20 14H16V12C17.4 12 18.7 11.2 19.4 10.1C19.7 9.6 19.3 9 18.8 9H14.7C13.9 8.4 13 8 12 8H10V4C10 2.9 10.9 2 12 2H20C21.1 2 22 2.9 22 4V12Z" fill="#828282"/>
<path d="M18.5 4C18.5 4 17.1 4 17 5.4V5.5C17 5.8 17.2 6 17.5 6H19.5C19.8 6 20 5.8 20 5.5V5.4C20 5.1 19.8 4 18.5 4Z" fill="#828282"/>
<path d="M13.5 4C13.5 4 12.1 4 12 5.4V5.5C12 5.8 12.2 6 12.5 6H14.5C14.8 6 15 5.8 15 5.5V5.4C15 5.1 14.8 4 13.5 4Z" fill="#828282"/>
</g>
<defs>
<clipPath id="clip0_60_4041">
<rect width="24" height="24" fill="white"/>
</clipPath>
</defs>
</svg>
