<svg width="24" height="24" viewBox="0 0 24 24" fill="none" xmlns="http://www.w3.org/2000/svg">
<path d="M2.99988 4H4.99988L5.27261 7M5.27261 7L5.82228 13.0464C5.92091 14.1314 6.86984 14.9379 7.95656 14.8602L18.3906 14.1149C19.3297 14.0479 20.0949 13.3349 20.228 12.4029L20.9999 7H5.27261Z" stroke="#828282" stroke-width="2" stroke-linecap="round" stroke-linejoin="round"/>
<path d="M8.99988 20C9.55216 20 9.99988 19.5523 9.99988 19C9.99988 18.4477 9.55216 18 8.99988 18C8.44759 18 7.99988 18.4477 7.99988 19C7.99988 19.5523 8.44759 20 8.99988 20Z" stroke="#828282" stroke-width="2" stroke-linecap="round" stroke-linejoin="round"/>
<path d="M16.9999 20C17.5522 20 17.9999 19.5523 17.9999 19C17.9999 18.4477 17.5522 18 16.9999 18C16.4476 18 15.9999 18.4477 15.9999 19C15.9999 19.5523 16.4476 20 16.9999 20Z" stroke="#828282" stroke-width="2" stroke-linecap="round" stroke-linejoin="round"/>
</svg>
