<svg width="20" height="20" viewBox="0 0 20 20" fill="none" xmlns="http://www.w3.org/2000/svg">
<g clip-path="url(#clip0_28_1135)">
<path d="M14.1667 1.66675H5.83335C3.53217 1.66675 1.66669 3.53223 1.66669 5.83342V14.1667C1.66669 16.4679 3.53217 18.3334 5.83335 18.3334H14.1667C16.4679 18.3334 18.3334 16.4679 18.3334 14.1667V5.83342C18.3334 3.53223 16.4679 1.66675 14.1667 1.66675Z" stroke="#00FF00" stroke-width="2" stroke-linecap="round" stroke-linejoin="round"/>
<path d="M13.3333 9.47501C13.4362 10.1685 13.3177 10.8769 12.9948 11.4992C12.6719 12.1215 12.1609 12.6262 11.5347 12.9414C10.9084 13.2566 10.1987 13.3663 9.50647 13.255C8.81425 13.1436 8.17478 12.8167 7.67901 12.321C7.18324 11.8252 6.85642 11.1857 6.74504 10.4935C6.63365 9.8013 6.74337 9.09159 7.05858 8.46532C7.3738 7.83905 7.87847 7.32812 8.5008 7.00521C9.12313 6.68229 9.83144 6.56383 10.525 6.66667C11.2324 6.77158 11.8874 7.10123 12.3931 7.60693C12.8988 8.11263 13.2284 8.76757 13.3333 9.47501Z" stroke="#00FF00" stroke-width="2" stroke-linecap="round" stroke-linejoin="round"/>
<path d="M14.9955 5.35555C15.0084 5.44224 14.9936 5.53078 14.9532 5.60857C14.9128 5.68636 14.849 5.74945 14.7707 5.78885C14.6924 5.82825 14.6037 5.84196 14.5172 5.82804C14.4306 5.81412 14.3507 5.77327 14.2887 5.71129C14.2268 5.64932 14.1859 5.56939 14.172 5.48286C14.1581 5.39634 14.1718 5.30762 14.2112 5.22934C14.2506 5.15105 14.3137 5.08719 14.3914 5.04682C14.4692 5.00646 14.5578 4.99165 14.6445 5.00451C14.7329 5.01762 14.8148 5.05883 14.878 5.12204C14.9412 5.18525 14.9824 5.26712 14.9955 5.35555Z" stroke="#00FF00" stroke-width="2" stroke-linecap="round" stroke-linejoin="round"/>
</g>
<defs>
<clipPath id="clip0_28_1135">
<rect width="20" height="20" fill="white"/>
</clipPath>
</defs>
</svg>
