<svg width="20" height="16" viewBox="0 0 20 16" fill="none" xmlns="http://www.w3.org/2000/svg">
<path d="M18.3333 1.34072C17.6079 1.84265 16.8046 2.22654 15.9545 2.47761C15.4983 1.96305 14.8919 1.59834 14.2174 1.43281C13.543 1.26728 12.8329 1.30892 12.1834 1.55209C11.5338 1.79527 10.9761 2.22824 10.5856 2.79246C10.1951 3.35668 9.99067 4.02493 9.99999 4.70681V5.44988C8.66865 5.48374 7.34944 5.19412 6.15985 4.60683C4.97025 4.01953 3.9472 3.15279 3.18181 2.08379C3.18181 2.08379 0.151505 8.77138 6.96969 11.7436C5.40948 12.7824 3.55087 13.3033 1.66666 13.2298C8.48484 16.9451 16.8182 13.2298 16.8182 4.68452C16.8175 4.47754 16.7972 4.27107 16.7576 4.06777C17.5308 3.31987 18.0764 2.3756 18.3333 1.34072Z" stroke="#00FF00" stroke-width="2" stroke-linecap="round" stroke-linejoin="round"/>
</svg>
