<svg width="20" height="20" viewBox="0 0 20 20" fill="none" xmlns="http://www.w3.org/2000/svg">
<g clip-path="url(#clip0_28_1133)">
<path d="M18.7834 5.34992C18.6844 4.95443 18.4828 4.59206 18.1989 4.29942C17.915 4.00679 17.559 3.79424 17.1667 3.68325C15.7334 3.33325 10 3.33325 10 3.33325C10 3.33325 4.2667 3.33325 2.83336 3.71659C2.44107 3.82757 2.08501 4.04012 1.80115 4.33276C1.51729 4.6254 1.31569 4.98776 1.2167 5.38325C0.954374 6.83788 0.826059 8.31351 0.833362 9.79159C0.824012 11.2808 0.952335 12.7677 1.2167 14.2333C1.32583 14.6165 1.53195 14.965 1.81515 15.2453C2.09835 15.5256 2.44905 15.7281 2.83336 15.8333C4.2667 16.2166 10 16.2166 10 16.2166C10 16.2166 15.7334 16.2166 17.1667 15.8333C17.559 15.7223 17.915 15.5097 18.1989 15.2171C18.4828 14.9244 18.6844 14.5621 18.7834 14.1666C19.0437 12.7229 19.172 11.2585 19.1667 9.79159C19.176 8.30238 19.0477 6.8155 18.7834 5.34992V5.34992Z" stroke="#00FF00" stroke-width="2" stroke-linecap="round" stroke-linejoin="round"/>
<path d="M8.125 12.5167L12.9167 9.79165L8.125 7.06665V12.5167Z" stroke="#00FF00" stroke-width="2" stroke-linecap="round" stroke-linejoin="round"/>
</g>
<defs>
<clipPath id="clip0_28_1133">
<rect width="20" height="20" fill="white"/>
</clipPath>
</defs>
</svg>
